<svg width="69" height="21" viewBox="0 0 69 21" fill="none" xmlns="http://www.w3.org/2000/svg">
<path d="M27.78 17.154C26.7347 17.154 25.9507 16.8693 25.428 16.3C24.9053 15.7213 24.6207 14.83 24.574 13.626L26.562 13.29C26.5807 14.0087 26.6787 14.5407 26.856 14.886C27.0427 15.222 27.318 15.39 27.682 15.39C27.9527 15.39 28.1487 15.306 28.27 15.138C28.3913 14.9607 28.452 14.7367 28.452 14.466C28.452 14.018 28.3493 13.64 28.144 13.332C27.948 13.0147 27.6353 12.6693 27.206 12.296L26.03 11.274C25.5633 10.882 25.204 10.462 24.952 10.014C24.7093 9.566 24.588 9.02933 24.588 8.404C24.588 7.48 24.8587 6.77067 25.4 6.276C25.9507 5.772 26.7067 5.52 27.668 5.52C28.6947 5.52 29.4087 5.81867 29.81 6.416C30.2113 7.004 30.44 7.75533 30.496 8.67L28.494 8.964C28.4753 8.36667 28.4053 7.928 28.284 7.648C28.172 7.35867 27.9433 7.214 27.598 7.214C27.346 7.214 27.15 7.312 27.01 7.508C26.87 7.69467 26.8 7.91867 26.8 8.18C26.8 8.55333 26.8793 8.87067 27.038 9.132C27.206 9.384 27.4673 9.664 27.822 9.972L28.97 10.98C29.5113 11.456 29.936 11.96 30.244 12.492C30.552 13.0147 30.706 13.6307 30.706 14.34C30.706 14.8813 30.5847 15.3667 30.342 15.796C30.0993 16.216 29.754 16.5473 29.306 16.79C28.8673 17.0327 28.3587 17.154 27.78 17.154ZM31.9224 5.66H36.8644V7.256H34.2184V10.266H36.2624V11.876H34.2184V15.432H36.8924V17H31.9224V5.66ZM39.7127 5.66H42.2747L44.4587 17H42.3307L41.9107 14.508H40.1187L39.6847 17H37.5147L39.7127 5.66ZM41.6867 13.08L41.0007 8.516L40.3287 13.08H41.6867ZM45.6079 5.66H48.5479C49.7706 5.66 50.6899 5.884 51.3059 6.332C51.9219 6.78 52.2299 7.55467 52.2299 8.656C52.2299 9.39333 52.1272 9.99067 51.9219 10.448C51.7166 10.896 51.3526 11.2367 50.8299 11.47L52.3979 17H50.0319L48.7439 11.862H47.9039V17H45.6079V5.66ZM48.5899 10.49C49.1312 10.49 49.5092 10.3593 49.7239 10.098C49.9479 9.82733 50.0599 9.40733 50.0599 8.838C50.0599 8.278 49.9619 7.86733 49.7659 7.606C49.5699 7.34467 49.2152 7.214 48.7019 7.214H47.9039V10.49H48.5899ZM56.838 17.154C55.634 17.154 54.78 16.832 54.276 16.188C53.772 15.5347 53.52 14.5967 53.52 13.374V9.314C53.52 8.06333 53.7673 7.12067 54.262 6.486C54.766 5.842 55.6247 5.52 56.838 5.52C57.9953 5.52 58.812 5.80467 59.288 6.374C59.7733 6.934 60.016 7.74133 60.016 8.796V9.748H57.776V8.698C57.776 8.362 57.7573 8.09133 57.72 7.886C57.692 7.68067 57.608 7.51267 57.468 7.382C57.3373 7.242 57.132 7.172 56.852 7.172C56.432 7.172 56.1613 7.30733 56.04 7.578C55.9187 7.84867 55.858 8.24533 55.858 8.768V13.92C55.858 14.452 55.928 14.8487 56.068 15.11C56.208 15.3713 56.4693 15.502 56.852 15.502C57.244 15.502 57.496 15.3713 57.608 15.11C57.72 14.8393 57.776 14.4427 57.776 13.92V12.814H60.016V13.752C60.016 14.8347 59.778 15.6747 59.302 16.272C58.826 16.86 58.0047 17.154 56.838 17.154ZM61.4543 5.66H63.7643V10.308H65.7663V5.66H68.0763V17H65.7663V11.974H63.7643V17H61.4543V5.66Z" fill="white"/>
<circle cx="6.15385" cy="9.15385" r="4.95385" stroke="white" stroke-width="2.4"/>
<path d="M11.4872 14.4871L16 18.9999" stroke="white" stroke-width="2.4"/>
</svg>
