<svg width="128" height="30" viewBox="0 0 128 30" fill="none" xmlns="http://www.w3.org/2000/svg">
<path d="M15.8682 8.2002L16.7266 22.7998H1.27344L2.13184 8.2002H15.8682Z" stroke="white" stroke-width="2.4"/>
<path d="M5 7V5C5 4.44772 5.44772 4 6 4H12C12.5523 4 13 4.44772 13 5V7" stroke="white" stroke-width="2.4"/>
<path d="M34.3262 8.80273C34.3262 8.42773 34.1934 8.13867 33.9277 7.93555C33.666 7.73242 33.1914 7.52734 32.5039 7.32031C31.8164 7.11328 31.2695 6.88281 30.8633 6.62891C30.0859 6.14062 29.6973 5.50391 29.6973 4.71875C29.6973 4.03125 29.9766 3.46484 30.5352 3.01953C31.0977 2.57422 31.8262 2.35156 32.7207 2.35156C33.3145 2.35156 33.8438 2.46094 34.3086 2.67969C34.7734 2.89844 35.1387 3.21094 35.4043 3.61719C35.6699 4.01953 35.8027 4.4668 35.8027 4.95898H34.3262C34.3262 4.51367 34.1855 4.16602 33.9043 3.91602C33.627 3.66211 33.2285 3.53516 32.709 3.53516C32.2246 3.53516 31.8477 3.63867 31.5781 3.8457C31.3125 4.05273 31.1797 4.3418 31.1797 4.71289C31.1797 5.02539 31.3242 5.28711 31.6133 5.49805C31.9023 5.70508 32.3789 5.9082 33.043 6.10742C33.707 6.30273 34.2402 6.52734 34.6426 6.78125C35.0449 7.03125 35.3398 7.32031 35.5273 7.64844C35.7148 7.97266 35.8086 8.35352 35.8086 8.79102C35.8086 9.50195 35.5352 10.0684 34.9883 10.4902C34.4453 10.9082 33.707 11.1172 32.7734 11.1172C32.1562 11.1172 31.5879 11.0039 31.0684 10.7773C30.5527 10.5469 30.1504 10.2305 29.8613 9.82812C29.5762 9.42578 29.4336 8.95703 29.4336 8.42188H30.916C30.916 8.90625 31.0762 9.28125 31.3965 9.54688C31.7168 9.8125 32.1758 9.94531 32.7734 9.94531C33.2891 9.94531 33.6758 9.8418 33.9336 9.63477C34.1953 9.42383 34.3262 9.14648 34.3262 8.80273ZM38.495 5.35156C38.9598 4.8125 39.5477 4.54297 40.2587 4.54297C41.6102 4.54297 42.2958 5.31445 42.3153 6.85742V11H40.8915V6.91016C40.8915 6.47266 40.7958 6.16406 40.6044 5.98438C40.4169 5.80078 40.1395 5.70898 39.7723 5.70898C39.202 5.70898 38.7762 5.96289 38.495 6.4707V11H37.0712V2H38.495V5.35156ZM43.613 7.77148C43.613 7.15039 43.7361 6.5918 43.9822 6.0957C44.2283 5.5957 44.574 5.21289 45.0193 4.94727C45.4646 4.67773 45.9763 4.54297 46.5545 4.54297C47.4099 4.54297 48.1033 4.81836 48.6345 5.36914C49.1697 5.91992 49.4587 6.65039 49.5017 7.56055L49.5076 7.89453C49.5076 8.51953 49.3865 9.07812 49.1443 9.57031C48.906 10.0625 48.5623 10.4434 48.113 10.7129C47.6677 10.9824 47.1521 11.1172 46.5662 11.1172C45.6716 11.1172 44.9548 10.8203 44.4158 10.2266C43.8806 9.62891 43.613 8.83398 43.613 7.8418V7.77148ZM45.0369 7.89453C45.0369 8.54688 45.1716 9.05859 45.4412 9.42969C45.7107 9.79688 46.0857 9.98047 46.5662 9.98047C47.0466 9.98047 47.4197 9.79297 47.6853 9.41797C47.9548 9.04297 48.0896 8.49414 48.0896 7.77148C48.0896 7.13086 47.9509 6.62305 47.6736 6.24805C47.4002 5.87305 47.0271 5.68555 46.5545 5.68555C46.0896 5.68555 45.7205 5.87109 45.447 6.24219C45.1736 6.60938 45.0369 7.16016 45.0369 7.89453ZM56.3834 7.89453C56.3834 8.875 56.1608 9.6582 55.7155 10.2441C55.2702 10.8262 54.6725 11.1172 53.9225 11.1172C53.2272 11.1172 52.6705 10.8887 52.2526 10.4316V13.4375H50.8288V4.66016H52.1413L52.1998 5.30469C52.6178 4.79688 53.1862 4.54297 53.9049 4.54297C54.6784 4.54297 55.2838 4.83203 55.7213 5.41016C56.1627 5.98438 56.3834 6.7832 56.3834 7.80664V7.89453ZM54.9655 7.77148C54.9655 7.13867 54.8385 6.63672 54.5846 6.26562C54.3346 5.89453 53.9752 5.70898 53.5065 5.70898C52.9245 5.70898 52.5065 5.94922 52.2526 6.42969V9.24219C52.5104 9.73438 52.9323 9.98047 53.5182 9.98047C53.9713 9.98047 54.3248 9.79883 54.5788 9.43555C54.8366 9.06836 54.9655 8.51367 54.9655 7.77148ZM63.2652 7.89453C63.2652 8.875 63.0425 9.6582 62.5972 10.2441C62.1519 10.8262 61.5542 11.1172 60.8042 11.1172C60.1089 11.1172 59.5523 10.8887 59.1343 10.4316V13.4375H57.7105V4.66016H59.023L59.0816 5.30469C59.4995 4.79688 60.0679 4.54297 60.7866 4.54297C61.5601 4.54297 62.1655 4.83203 62.603 5.41016C63.0445 5.98438 63.2652 6.7832 63.2652 7.80664V7.89453ZM61.8472 7.77148C61.8472 7.13867 61.7202 6.63672 61.4663 6.26562C61.2163 5.89453 60.857 5.70898 60.3882 5.70898C59.8062 5.70898 59.3882 5.94922 59.1343 6.42969V9.24219C59.3921 9.73438 59.814 9.98047 60.3999 9.98047C60.853 9.98047 61.2066 9.79883 61.4605 9.43555C61.7183 9.06836 61.8472 8.51367 61.8472 7.77148ZM66.1098 11H64.6859V4.66016H66.1098V11ZM64.598 3.01367C64.598 2.79492 64.6664 2.61328 64.8031 2.46875C64.9437 2.32422 65.143 2.25195 65.4008 2.25195C65.6586 2.25195 65.8578 2.32422 65.9984 2.46875C66.1391 2.61328 66.2094 2.79492 66.2094 3.01367C66.2094 3.22852 66.1391 3.4082 65.9984 3.55273C65.8578 3.69336 65.6586 3.76367 65.4008 3.76367C65.143 3.76367 64.9437 3.69336 64.8031 3.55273C64.6664 3.4082 64.598 3.22852 64.598 3.01367ZM69.1067 4.66016L69.1477 5.39258C69.6165 4.82617 70.2317 4.54297 70.9934 4.54297C72.3138 4.54297 72.9856 5.29883 73.0091 6.81055V11H71.5852V6.89258C71.5852 6.49023 71.4973 6.19336 71.3216 6.00195C71.1497 5.80664 70.8665 5.70898 70.472 5.70898C69.8977 5.70898 69.47 5.96875 69.1888 6.48828V11H67.7649V4.66016H69.1067ZM74.3361 7.7832C74.3361 6.79883 74.5666 6.01367 75.0275 5.42773C75.4923 4.83789 76.1076 4.54297 76.8732 4.54297C77.5959 4.54297 78.1642 4.79492 78.5783 5.29883L78.6427 4.66016H79.9259V10.8066C79.9259 11.6387 79.6662 12.2949 79.1466 12.7754C78.631 13.2559 77.9338 13.4961 77.0548 13.4961C76.59 13.4961 76.1349 13.3984 75.6896 13.2031C75.2482 13.0117 74.9123 12.7598 74.6818 12.4473L75.3556 11.5918C75.7931 12.1113 76.3322 12.3711 76.9728 12.3711C77.4455 12.3711 77.8185 12.2422 78.092 11.9844C78.3654 11.7305 78.5021 11.3555 78.5021 10.8594V10.4316C78.092 10.8887 77.5451 11.1172 76.8615 11.1172C76.1193 11.1172 75.5119 10.8223 75.0392 10.2324C74.5705 9.64258 74.3361 8.82617 74.3361 7.7832ZM75.7541 7.90625C75.7541 8.54297 75.883 9.04492 76.1408 9.41211C76.4025 9.77539 76.7638 9.95703 77.2248 9.95703C77.799 9.95703 78.2248 9.71094 78.5021 9.21875V6.42969C78.2326 5.94922 77.8107 5.70898 77.2365 5.70898C76.7677 5.70898 76.4025 5.89453 76.1408 6.26562C75.883 6.63672 75.7541 7.18359 75.7541 7.90625ZM91.2695 8.22266C91.1835 9.13281 90.8476 9.84375 90.2616 10.3555C89.6757 10.8633 88.8964 11.1172 87.9238 11.1172C87.2441 11.1172 86.6445 10.957 86.1249 10.6367C85.6093 10.3125 85.2109 9.85352 84.9296 9.25977C84.6484 8.66602 84.5019 7.97656 84.4902 7.19141V6.39453C84.4902 5.58984 84.6327 4.88086 84.9179 4.26758C85.203 3.6543 85.6113 3.18164 86.1425 2.84961C86.6777 2.51758 87.2948 2.35156 87.9941 2.35156C88.9355 2.35156 89.6933 2.60742 90.2675 3.11914C90.8417 3.63086 91.1757 4.35352 91.2695 5.28711H89.7929C89.7226 4.67383 89.5429 4.23242 89.2538 3.96289C88.9687 3.68945 88.5488 3.55273 87.9941 3.55273C87.3495 3.55273 86.8534 3.78906 86.5058 4.26172C86.162 4.73047 85.9863 5.41992 85.9784 6.33008V7.08594C85.9784 8.00781 86.1425 8.71094 86.4706 9.19531C86.8027 9.67969 87.287 9.92188 87.9238 9.92188C88.5058 9.92188 88.9433 9.79102 89.2363 9.5293C89.5292 9.26758 89.7148 8.83203 89.7929 8.22266H91.2695ZM96.3699 11C96.3074 10.8789 96.2527 10.6816 96.2059 10.4082C95.7527 10.8809 95.198 11.1172 94.5418 11.1172C93.9051 11.1172 93.3855 10.9355 92.9832 10.5723C92.5809 10.209 92.3797 9.75977 92.3797 9.22461C92.3797 8.54883 92.6297 8.03125 93.1297 7.67188C93.6336 7.30859 94.3523 7.12695 95.2859 7.12695H96.159V6.71094C96.159 6.38281 96.0672 6.12109 95.8836 5.92578C95.7 5.72656 95.4207 5.62695 95.0457 5.62695C94.7215 5.62695 94.4559 5.70898 94.2488 5.87305C94.0418 6.0332 93.9383 6.23828 93.9383 6.48828H92.5145C92.5145 6.14062 92.6297 5.81641 92.8602 5.51562C93.0906 5.21094 93.4031 4.97266 93.7977 4.80078C94.1961 4.62891 94.6395 4.54297 95.1277 4.54297C95.8699 4.54297 96.4617 4.73047 96.9031 5.10547C97.3445 5.47656 97.5711 6 97.5828 6.67578V9.53516C97.5828 10.1055 97.6629 10.5605 97.823 10.9004V11H96.3699ZM94.8055 9.97461C95.0867 9.97461 95.3504 9.90625 95.5965 9.76953C95.8465 9.63281 96.034 9.44922 96.159 9.21875V8.02344H95.3914C94.8641 8.02344 94.4676 8.11523 94.202 8.29883C93.9363 8.48242 93.8035 8.74219 93.8035 9.07812C93.8035 9.35156 93.8934 9.57031 94.073 9.73438C94.2566 9.89453 94.5008 9.97461 94.8055 9.97461ZM102.513 5.96094C102.326 5.92969 102.132 5.91406 101.933 5.91406C101.281 5.91406 100.841 6.16406 100.615 6.66406V11H99.1911V4.66016H100.55L100.586 5.36914C100.929 4.81836 101.406 4.54297 102.015 4.54297C102.218 4.54297 102.386 4.57031 102.519 4.625L102.513 5.96094ZM105.61 3.11914V4.66016H106.729V5.71484H105.61V9.25391C105.61 9.49609 105.657 9.67188 105.751 9.78125C105.848 9.88672 106.02 9.93945 106.266 9.93945C106.43 9.93945 106.596 9.91992 106.764 9.88086V10.9824C106.44 11.0723 106.128 11.1172 105.827 11.1172C104.733 11.1172 104.186 10.5137 104.186 9.30664V5.71484H103.143V4.66016H104.186V3.11914H105.61Z" fill="white"/>
<path d="M36.376 22.8848C36.376 24.2611 36.0911 25.3138 35.5215 26.043C34.9518 26.7721 34.1178 27.1367 33.0195 27.1367C31.9349 27.1367 31.1055 26.779 30.5312 26.0635C29.957 25.348 29.6631 24.3226 29.6494 22.9873V21.1553C29.6494 19.7653 29.9365 18.7103 30.5107 17.9902C31.0895 17.2702 31.9212 16.9102 33.0059 16.9102C34.0905 16.9102 34.9199 17.2679 35.4941 17.9834C36.0684 18.6943 36.3623 19.7174 36.376 21.0527V22.8848ZM34.4004 20.875C34.4004 20.0501 34.2865 19.4508 34.0586 19.0771C33.8353 18.6989 33.4844 18.5098 33.0059 18.5098C32.541 18.5098 32.1969 18.6898 31.9736 19.0498C31.7549 19.4053 31.6387 19.9635 31.625 20.7246V23.1445C31.625 23.9557 31.7344 24.5596 31.9531 24.9561C32.1764 25.348 32.5319 25.5439 33.0195 25.5439C33.5026 25.5439 33.8512 25.3548 34.0654 24.9766C34.2796 24.5983 34.3913 24.0195 34.4004 23.2402V20.875ZM38.4505 29.4951L37.4183 28.9551L37.6644 28.5107C37.9698 27.9548 38.127 27.401 38.1361 26.8496V25.3184H39.8041L39.7972 26.6855C39.7927 27.1914 39.6651 27.7018 39.4144 28.2168C39.1638 28.7318 38.8425 29.1579 38.4505 29.4951ZM48.113 22.8848C48.113 24.2611 47.8282 25.3138 47.2585 26.043C46.6889 26.7721 45.8549 27.1367 44.7566 27.1367C43.6719 27.1367 42.8425 26.779 42.2683 26.0635C41.6941 25.348 41.4001 24.3226 41.3864 22.9873V21.1553C41.3864 19.7653 41.6736 18.7103 42.2478 17.9902C42.8265 17.2702 43.6583 16.9102 44.7429 16.9102C45.8275 16.9102 46.657 17.2679 47.2312 17.9834C47.8054 18.6943 48.0993 19.7174 48.113 21.0527V22.8848ZM46.1374 20.875C46.1374 20.0501 46.0235 19.4508 45.7956 19.0771C45.5723 18.6989 45.2214 18.5098 44.7429 18.5098C44.278 18.5098 43.934 18.6898 43.7107 19.0498C43.4919 19.4053 43.3757 19.9635 43.362 20.7246V23.1445C43.362 23.9557 43.4714 24.5596 43.6902 24.9561C43.9135 25.348 44.2689 25.5439 44.7566 25.5439C45.2396 25.5439 45.5883 25.3548 45.8025 24.9766C46.0167 24.5983 46.1283 24.0195 46.1374 23.2402V20.875ZM56.2921 22.8848C56.2921 24.2611 56.0072 25.3138 55.4376 26.043C54.8679 26.7721 54.0339 27.1367 52.9356 27.1367C51.851 27.1367 51.0216 26.779 50.4473 26.0635C49.8731 25.348 49.5792 24.3226 49.5655 22.9873V21.1553C49.5655 19.7653 49.8526 18.7103 50.4268 17.9902C51.0056 17.2702 51.8373 16.9102 52.922 16.9102C54.0066 16.9102 54.836 17.2679 55.4102 17.9834C55.9845 18.6943 56.2784 19.7174 56.2921 21.0527V22.8848ZM54.3165 20.875C54.3165 20.0501 54.2026 19.4508 53.9747 19.0771C53.7514 18.6989 53.4005 18.5098 52.922 18.5098C52.4571 18.5098 52.113 18.6898 51.8897 19.0498C51.671 19.4053 51.5548 19.9635 51.5411 20.7246V23.1445C51.5411 23.9557 51.6505 24.5596 51.8692 24.9561C52.0925 25.348 52.448 25.5439 52.9356 25.5439C53.4187 25.5439 53.7673 25.3548 53.9815 24.9766C54.1957 24.5983 54.3074 24.0195 54.3165 23.2402V20.875ZM67.5984 22.6865H63.6609V25.3525H68.282V27H61.6102V17.0469H68.2684V18.708H63.6609V21.0801H67.5984V22.6865ZM77.1584 17.0469V23.6025C77.1584 24.6917 76.8166 25.5531 76.133 26.1865C75.4539 26.82 74.5242 27.1367 73.3439 27.1367C72.1818 27.1367 71.2589 26.8291 70.5754 26.2139C69.8918 25.5986 69.5431 24.7533 69.5295 23.6777V17.0469H71.5802V23.6162C71.5802 24.2679 71.7352 24.7441 72.0451 25.0449C72.3595 25.3411 72.7925 25.4893 73.3439 25.4893C74.4969 25.4893 75.0825 24.8831 75.1007 23.6709V17.0469H77.1584ZM82.6646 23.3564H81.0308V27H78.98V17.0469H82.6782C83.854 17.0469 84.7609 17.3089 85.3989 17.833C86.037 18.3571 86.356 19.0977 86.356 20.0547C86.356 20.7337 86.2079 21.3011 85.9116 21.7568C85.62 22.208 85.1756 22.568 84.5786 22.8369L86.732 26.9043V27H84.5308L82.6646 23.3564ZM81.0308 21.6953H82.6851C83.2001 21.6953 83.5988 21.5654 83.8814 21.3057C84.1639 21.0413 84.3052 20.679 84.3052 20.2188C84.3052 19.7493 84.1708 19.3802 83.9019 19.1113C83.6376 18.8424 83.2297 18.708 82.6782 18.708H81.0308V21.6953Z" fill="white"/>
</svg>
