<svg width="22" height="21" viewBox="0 0 22 21" fill="none" xmlns="http://www.w3.org/2000/svg">
<path d="M14.7252 1.19971C17.9598 1.19981 20.6002 3.66229 20.6002 6.896C20.6002 8.84688 19.6741 10.5189 18.3219 12.1099C16.9813 13.6871 15.0857 15.3378 12.9215 17.2251L11.6901 18.3032L10.9 18.9946L10.11 18.3032L8.87854 17.2251C6.71434 15.3378 4.81878 13.6871 3.47815 12.1099C2.12597 10.5189 1.19989 8.84688 1.19983 6.896C1.19983 3.66229 3.84024 1.19981 7.07483 1.19971C8.47459 1.19971 9.82622 1.67813 10.9 2.48291C11.9738 1.67813 13.3255 1.19971 14.7252 1.19971Z" stroke="white" stroke-width="2.4"/>
</svg>
